<svg version="1.1" xmlns="http://www.w3.org/2000/svg" xmlns:xlink="http://www.w3.org/1999/xlink" width="48" height="48"><defs><linearGradient x1="12.76674" y1="15.10702" x2="53.11928" y2="50.77901" gradientUnits="userSpaceOnUse" id="color-1"><stop offset="0" stop-color="#000000" stop-opacity="0.06"></stop><stop offset="1" stop-color="#000000" stop-opacity="0"></stop></linearGradient><filter id="dropshadow-base"><feColorMatrix type="matrix" values="0 0 0 0 0  0 0 0 0 0  0 0 0 0 0  0 0 0 .8 0"></feColorMatrix> <feOffset dx="0" dy="1"></feOffset> <feGaussianBlur stdDeviation="1"></feGaussianBlur> <feComposite in="SourceGraphic"></feComposite></filter><filter id="dropshadow-banner" x="-10%" y="-10%" width="120%" height="130%"><feColorMatrix type="matrix" values="0 0 0 0 0  0 0 0 0 0  0 0 0 0 0  0 0 0 .4 0"></feColorMatrix> <feOffset dx="0" dy="1"></feOffset> <feGaussianBlur stdDeviation="0.5"></feGaussianBlur> <feComposite in="SourceGraphic"></feComposite></filter></defs><g fill="none" fill-rule="none" stroke="none" stroke-width="none" stroke-linecap="butt" stroke-linejoin="miter" stroke-miterlimit="10" stroke-dasharray="" stroke-dashoffset="0" font-family="none" font-weight="none" font-size="none" text-anchor="none" style="mix-blend-mode: normal"><path d="M4,40c-1.10457,0 -2,-0.89543 -2,-2v-28c0,-1.10457 0.89543,-2 2,-2h40c1.10457,0 2,0.89543 2,2v28c0,1.10457 -0.89543,2 -2,2z" id="base 1 9" fill="#ffffff" fill-rule="nonzero" stroke-width="1"></path><path d="M13.00881,32.66702c-0.00458,-0.00458 -0.00911,-0.00922 -0.01359,-0.01392c-0.14629,-0.15361 -0.22848,-0.36196 -0.22848,-0.57919v-6.55275l1.62258,-4.91454c0.15602,-0.47505 0.59287,-0.81907 1.10772,-0.81907h8.50299l-1.87223,-1.87223v-2.8083h13.10546l10.76675,10.76675v12.12624c0,1.10457 -0.89543,2 -2,2h-23.65821z" fill="url(#color-1)" fill-rule="nonzero" stroke-width="1"></path><path d="M25.24814,24.70209l-1.17014,-3.68592h-8.58096l-1.17013,3.68592zM24.90541,28.43768c0.21944,-0.23041 0.34273,-0.54291 0.34273,-0.86877c0,-0.32586 -0.12329,-0.63838 -0.34273,-0.86879c-0.21944,-0.23041 -0.51707,-0.35985 -0.82741,-0.35985c-0.31034,0 -0.60797,0.12943 -0.82741,0.35985c-0.21944,0.23041 -0.34273,0.54294 -0.34273,0.86879c0,0.32586 0.12329,0.63835 0.34273,0.86877c0.21944,0.23041 0.51707,0.35987 0.82741,0.35987c0.31034,0 0.60797,-0.12946 0.82741,-0.35987zM16.32446,28.43768c0.21944,-0.23041 0.34273,-0.54291 0.34273,-0.86877c0,-0.32586 -0.12329,-0.63838 -0.34273,-0.86879c-0.21944,-0.23041 -0.51707,-0.35985 -0.82741,-0.35985c-0.31034,0 -0.60796,0.12943 -0.8274,0.35985c-0.21944,0.23041 -0.34272,0.54294 -0.34272,0.86879c0,0.32586 0.12328,0.63835 0.34272,0.86877c0.21944,0.23041 0.51707,0.35987 0.8274,0.35987c0.31034,0 0.60797,-0.12946 0.82741,-0.35987zM26.8083,25.52116v6.55275c0,0.21723 -0.08218,0.42557 -0.22848,0.57919c-0.1463,0.15359 -0.34471,0.23989 -0.5516,0.23989h-0.78008c-0.20689,0 -0.40532,-0.0863 -0.5516,-0.23989c-0.1463,-0.15362 -0.22848,-0.36196 -0.22848,-0.57919v-0.8191h-9.36105v0.8191c0,0.21723 -0.08219,0.42557 -0.22848,0.57919c-0.14629,0.15359 -0.34471,0.23989 -0.55161,0.23989h-0.78008c-0.20689,0 -0.40531,-0.0863 -0.55161,-0.23989c-0.14629,-0.15362 -0.22848,-0.36196 -0.22848,-0.57919v-6.55275l1.62258,-4.91454c0.15602,-0.47506 0.59287,-0.81908 1.10772,-0.81908h8.58096c0.51486,0 0.95171,0.34402 1.10772,0.81908zM35.23325,15.10701v17.78597h-6.55272v-7.71506l-1.47064,-4.4543h0.53453v-1.8722h-1.15644c-0.22386,-0.5487 -0.75092,-0.93611 -1.36585,-0.93611h-3.09434v-2.8083zM30.55273,28.21247h1.8722v-1.8722h-1.8722zM30.55273,20.72363h1.8722v-1.8722h-1.8722zM30.55273,24.46806h1.8722v-1.87223h-1.8722z" fill="none" fill-rule="nonzero" stroke-width="0"></path><g stroke-width="1"><path d="M14.32692,24.70209l1.17013,-3.68592h8.58096l1.17014,3.68592zM24.078,28.79755c-0.31034,0 -0.60797,-0.12946 -0.82741,-0.35987c-0.21944,-0.23041 -0.34273,-0.54291 -0.34273,-0.86877c0,-0.32586 0.12329,-0.63838 0.34273,-0.86879c0.21944,-0.23041 0.51707,-0.35985 0.82741,-0.35985c0.31034,0 0.60797,0.12943 0.82741,0.35985c0.21944,0.23041 0.34273,0.54294 0.34273,0.86879c0,0.32586 -0.12329,0.63835 -0.34273,0.86877c-0.21944,0.23041 -0.51707,0.35987 -0.82741,0.35987zM15.49705,28.79755c-0.31034,0 -0.60796,-0.12946 -0.8274,-0.35987c-0.21944,-0.23041 -0.34272,-0.54291 -0.34272,-0.86877c0,-0.32586 0.12328,-0.63838 0.34272,-0.86879c0.21944,-0.23041 0.51707,-0.35985 0.8274,-0.35985c0.31034,0 0.60797,0.12943 0.82741,0.35985c0.21944,0.23041 0.34273,0.54294 0.34273,0.86879c0,0.32586 -0.12329,0.63835 -0.34273,0.86877c-0.21944,0.23041 -0.51707,0.35987 -0.82741,0.35987zM25.18572,20.60662c-0.15601,-0.47506 -0.59285,-0.81908 -1.10772,-0.81908h-8.58096c-0.51485,0 -0.9517,0.34402 -1.10772,0.81908l-1.62258,4.91454v6.55275c0,0.21723 0.08219,0.42557 0.22848,0.57919c0.14629,0.15359 0.34471,0.23989 0.55161,0.23989h0.78008c0.20689,0 0.40531,-0.0863 0.55161,-0.23989c0.14629,-0.15362 0.22848,-0.36196 0.22848,-0.57919v-0.8191h9.36105v0.8191c0,0.21723 0.08218,0.42557 0.22848,0.57919c0.14628,0.15359 0.34471,0.23989 0.5516,0.23989h0.39003h0.39005c0.20689,0 0.4053,-0.0863 0.5516,-0.23989c0.1463,-0.15362 0.22848,-0.36196 0.22848,-0.57919v-6.55275z" fill="#00be7b" fill-rule="nonzero"></path><path d="M35.23325,15.10701v17.78597h-6.55272v-7.71506l-1.47064,-4.4543h0.53453v-1.8722h-1.15644c-0.22386,-0.5487 -0.75092,-0.93611 -1.36585,-0.93611h-3.09434v-2.8083zM30.55273,26.34027h1.8722v1.8722h-1.8722zM30.55273,18.85143h1.8722v1.8722h-1.8722zM30.55273,22.59584h1.8722v1.87223h-1.8722z" fill="#47485d" fill-rule="evenodd"></path></g><path d="M2,24c0,-12.15026 9.84974,-22 22,-22c12.15026,0 22,9.84974 22,22c0,12.15026 -9.84974,22 -22,22c-12.15026,0 -22,-9.84974 -22,-22z" id="base 1 5 1" fill="none" fill-rule="nonzero" stroke-width="1"></path><path d="M2,24c0,-12.15026 9.84974,-22 22,-22c12.15026,0 22,9.84974 22,22c0,12.15026 -9.84974,22 -22,22c-12.15026,0 -22,-9.84974 -22,-22z" id="base 1 1 1" fill="none" fill-rule="nonzero" stroke-width="1"></path><g fill="none" fill-rule="nonzero" stroke-width="1" font-family="Roboto, sans-serif" font-weight="400" font-size="14" text-anchor="start"></g><rect x="2" y="2" width="44" height="22" fill="none" fill-rule="nonzero" stroke-width="1"></rect><path d="M2,24v-22h44v22z" fill="none" fill-rule="nonzero" stroke-width="1"></path><path d="M2,24v-22h44v22z" fill="none" fill-rule="nonzero" stroke-width="1"></path><path d="M2,24v-22h44v22z" fill="none" fill-rule="nonzero" stroke-width="1"></path><path d="M2,24v-22h44v22z" fill="none" fill-rule="nonzero" stroke-width="1"></path><g fill="none" fill-rule="nonzero" stroke-width="1" font-family="Roboto, sans-serif" font-weight="400" font-size="14" text-anchor="start"></g><rect x="2" y="2" width="44" height="22" fill="none" fill-rule="nonzero" stroke-width="1"></rect><path d="M2,24v-22h44v22z" fill="none" fill-rule="nonzero" stroke-width="1"></path><path d="M2,24v-22h44v22z" fill="none" fill-rule="nonzero" stroke-width="1"></path><path d="M2,24v-22h44v22z" fill="none" fill-rule="nonzero" stroke-width="1"></path><path d="M2,24v-22h44v22z" fill="none" fill-rule="nonzero" stroke-width="1"></path></g></svg>