<svg width="115" height="29" viewBox="0 0 115 29" fill="none" xmlns="http://www.w3.org/2000/svg">
<path d="M2.50088 15.3804L4.37653 9.47213H18.1314L20.007 15.3804H2.50088ZM18.1314 21.9453C17.6339 21.9453 17.1568 21.7378 16.8051 21.3684C16.4533 20.9991 16.2557 20.4981 16.2557 19.9758C16.2557 19.4535 16.4533 18.9525 16.8051 18.5832C17.1568 18.2139 17.6339 18.0064 18.1314 18.0064C18.6288 18.0064 19.1059 18.2139 19.4576 18.5832C19.8094 18.9525 20.007 19.4535 20.007 19.9758C20.007 20.4981 19.8094 20.9991 19.4576 21.3684C19.1059 21.7378 18.6288 21.9453 18.1314 21.9453ZM4.37653 21.9453C3.87908 21.9453 3.402 21.7378 3.05024 21.3684C2.69849 20.9991 2.50088 20.4981 2.50088 19.9758C2.50088 19.4535 2.69849 18.9525 3.05024 18.5832C3.402 18.2139 3.87908 18.0064 4.37653 18.0064C4.87399 18.0064 5.35107 18.2139 5.70283 18.5832C6.05458 18.9525 6.25219 19.4535 6.25219 19.9758C6.25219 20.4981 6.05458 20.9991 5.70283 21.3684C5.35107 21.7378 4.87399 21.9453 4.37653 21.9453ZM19.907 8.81565C19.6569 8.05413 18.9566 7.50269 18.1314 7.50269H4.37653C3.55125 7.50269 2.851 8.05413 2.60091 8.81565L0 16.6934V27.1971C0 27.5453 0.131742 27.8793 0.366245 28.1255C0.600748 28.3717 0.918802 28.5101 1.25044 28.5101H2.50088C2.83251 28.5101 3.15057 28.3717 3.38507 28.1255C3.61957 27.8793 3.75132 27.5453 3.75132 27.1971V25.8841H18.7566V27.1971C18.7566 27.5453 18.8883 27.8793 19.1228 28.1255C19.3573 28.3717 19.6754 28.5101 20.007 28.5101H20.6322H21.2575C21.5891 28.5101 21.9071 28.3717 22.1416 28.1255C22.3762 27.8793 22.5079 27.5453 22.5079 27.1971V16.6934L19.907 8.81565Z" fill="#00BE7B"/>
<path fill-rule="evenodd" clip-rule="evenodd" d="M36.0126 0V28.51H25.5089V16.1432L23.1516 9.00316H24.0084V6.00211H22.1547C21.7959 5.12258 20.951 4.50158 19.9653 4.50158H15.0052V0H36.0126ZM28.51 18.0063H31.511V21.0074H28.51V18.0063ZM28.51 6.00211H31.511V9.00316H28.51V6.00211ZM28.51 12.0042H31.511V15.0053H28.51V12.0042Z" fill="#47485D"/>
<path d="M51.186 18.79C50.0157 18.79 48.9568 18.5336 48.0094 18.0209C47.0731 17.497 46.3375 16.7837 45.8025 15.8809C45.2675 14.9669 45 13.9415 45 12.8046C45 11.6677 45.2675 10.6479 45.8025 9.74504C46.3375 8.83107 47.0787 8.11773 48.0261 7.60502C48.9735 7.08116 50.0324 6.81923 51.2027 6.81923C52.1167 6.81923 52.9526 6.97527 53.7106 7.28736C54.4685 7.5883 55.1149 8.03971 55.6499 8.64159L54.5632 9.69488C53.6827 8.76977 52.5848 8.30721 51.2696 8.30721C50.4002 8.30721 49.6144 8.50226 48.9122 8.89237C48.21 9.28248 47.6583 9.82306 47.2571 10.5141C46.8669 11.194 46.6719 11.9575 46.6719 12.8046C46.6719 13.6517 46.8669 14.4208 47.2571 15.1118C47.6583 15.7917 48.21 16.3267 48.9122 16.7168C49.6144 17.1069 50.4002 17.302 51.2696 17.302C52.5737 17.302 53.6715 16.8339 54.5632 15.8976L55.6499 16.9509C55.1149 17.5528 54.4629 18.0098 53.6938 18.3218C52.9359 18.6339 52.1 18.79 51.186 18.79Z" fill="#00BE7B"/>
<path d="M59.3391 11.2832C59.6177 10.7705 60.0301 10.3804 60.5763 10.1129C61.1224 9.84535 61.7856 9.7116 62.5658 9.7116V11.2665C62.4767 11.2553 62.3541 11.2497 62.198 11.2497C61.3286 11.2497 60.6432 11.5117 60.1416 12.0355C59.6512 12.5482 59.406 13.2839 59.406 14.2424V18.6562H57.8009V9.79519H59.3391V11.2832Z" fill="#00BE7B"/>
<path d="M72.8218 9.79519V18.6562H71.2837V17.2518C70.927 17.7422 70.4756 18.1156 69.9295 18.372C69.3833 18.6284 68.7814 18.7565 68.1238 18.7565C67.2656 18.7565 66.4965 18.567 65.8166 18.1881C65.1367 17.8091 64.6017 17.2797 64.2116 16.5998C63.8326 15.9087 63.6432 15.1174 63.6432 14.2257C63.6432 13.334 63.8326 12.5482 64.2116 11.8683C64.6017 11.1884 65.1367 10.659 65.8166 10.28C66.4965 9.90108 67.2656 9.7116 68.1238 9.7116C68.7591 9.7116 69.3443 9.8342 69.8793 10.0794C70.4143 10.3135 70.8602 10.6646 71.2168 11.1327V9.79519H72.8218ZM68.2576 17.3521C68.8149 17.3521 69.322 17.224 69.779 16.9676C70.236 16.7001 70.5926 16.3323 70.849 15.8642C71.1054 15.3849 71.2335 14.8387 71.2335 14.2257C71.2335 13.6127 71.1054 13.0721 70.849 12.604C70.5926 12.1247 70.236 11.7569 69.779 11.5005C69.322 11.2442 68.8149 11.116 68.2576 11.116C67.6891 11.116 67.1764 11.2442 66.7194 11.5005C66.2736 11.7569 65.9169 12.1247 65.6494 12.604C65.3931 13.0721 65.2649 13.6127 65.2649 14.2257C65.2649 14.8387 65.3931 15.3849 65.6494 15.8642C65.9169 16.3323 66.2736 16.7001 66.7194 16.9676C67.1764 17.224 67.6891 17.3521 68.2576 17.3521Z" fill="#00BE7B"/>
<path d="M78.3999 18.7565C77.6755 18.7565 76.9788 18.6618 76.3101 18.4723C75.6413 18.2717 75.1175 18.0209 74.7385 17.72L75.4073 16.4493C75.7974 16.728 76.2711 16.9509 76.8284 17.1181C77.3857 17.2853 77.9485 17.3689 78.517 17.3689C79.9214 17.3689 80.6236 16.9676 80.6236 16.1651C80.6236 15.8976 80.5288 15.6858 80.3393 15.5298C80.1499 15.3737 79.9102 15.2623 79.6204 15.1954C79.3418 15.1174 78.9405 15.0338 78.4167 14.9446C77.7033 14.8332 77.1182 14.705 76.6612 14.5601C76.2153 14.4152 75.8308 14.17 75.5076 13.8245C75.1843 13.4789 75.0227 12.9941 75.0227 12.3699C75.0227 11.5674 75.3571 10.9265 76.0259 10.4472C76.6946 9.95681 77.5919 9.7116 78.7176 9.7116C79.3083 9.7116 79.8991 9.78405 80.4898 9.92894C81.0805 10.0738 81.5654 10.2689 81.9444 10.5141L81.2589 11.7847C80.5344 11.3166 79.6817 11.0825 78.7009 11.0825C78.021 11.0825 77.5027 11.194 77.146 11.4169C76.7894 11.6398 76.611 11.9352 76.611 12.303C76.611 12.5928 76.7113 12.8213 76.912 12.9885C77.1126 13.1557 77.3578 13.2783 77.6476 13.3563C77.9485 13.4343 78.3665 13.5235 78.9015 13.6238C79.6149 13.7464 80.1889 13.8802 80.6236 14.0251C81.0694 14.1588 81.4484 14.3929 81.7604 14.7273C82.0725 15.0617 82.2286 15.5298 82.2286 16.1317C82.2286 16.9342 81.8831 17.5751 81.192 18.0543C80.5121 18.5225 79.5814 18.7565 78.3999 18.7565Z" fill="#00BE7B"/>
<path d="M88.9659 9.7116C90.0916 9.7116 90.9833 10.0404 91.6409 10.698C92.3097 11.3445 92.6441 12.2975 92.6441 13.5569V18.6562H91.0391V13.7409C91.0391 12.8826 90.8329 12.2362 90.4205 11.8015C90.0081 11.3668 89.4173 11.1494 88.6482 11.1494C87.7789 11.1494 87.0934 11.4058 86.5918 11.9185C86.0903 12.4201 85.8395 13.1445 85.8395 14.092V18.6562H84.2345V6.25078H85.8395V11.0491C86.1738 10.6256 86.6085 10.2968 87.1435 10.0627C87.6897 9.82863 88.2971 9.7116 88.9659 9.7116Z" fill="#00BE7B"/>
<path d="M95.6144 9.79519H97.2194V18.6562H95.6144V9.79519ZM96.4169 8.08986C96.1048 8.08986 95.8429 7.98955 95.6311 7.78892C95.4305 7.5883 95.3302 7.34309 95.3302 7.05329C95.3302 6.7635 95.4305 6.51829 95.6311 6.31766C95.8429 6.10589 96.1048 6 96.4169 6C96.729 6 96.9854 6.10031 97.186 6.30094C97.3978 6.49042 97.5037 6.73006 97.5037 7.01985C97.5037 7.32079 97.3978 7.57715 97.186 7.78892C96.9854 7.98955 96.729 8.08986 96.4169 8.08986Z" fill="#00BE7B"/>
<path d="M103.293 7.47126C102.335 7.47126 101.856 7.98955 101.856 9.02612V9.79519H104.447V11.116H101.889V18.6562H100.284V9.0094C100.284 8.12888 100.54 7.43225 101.053 6.91954C101.566 6.40683 102.285 6.15047 103.21 6.15047C103.566 6.15047 103.901 6.19505 104.213 6.28422C104.525 6.37339 104.792 6.50157 105.015 6.66876L104.531 7.88924C104.163 7.61059 103.75 7.47126 103.293 7.47126Z" fill="#00BE7B"/>
<path d="M114.209 9.79519V17.4525C114.209 19.0017 113.846 20.1442 113.122 20.8798C112.397 21.6266 111.311 22 109.862 22C109.07 22 108.312 21.883 107.588 21.6489C106.875 21.426 106.289 21.1028 105.832 20.6792L106.618 19.442C107.008 19.7987 107.476 20.0773 108.023 20.278C108.58 20.4786 109.165 20.5789 109.778 20.5789C110.748 20.5789 111.461 20.3337 111.918 19.8433C112.375 19.364 112.604 18.6228 112.604 17.6196V16.9676C112.28 17.3912 111.862 17.72 111.35 17.954C110.837 18.1769 110.28 18.2884 109.678 18.2884C108.496 18.2884 107.566 17.9652 106.886 17.3187C106.206 16.6722 105.866 15.7137 105.866 14.4431V9.79519H107.471V14.2591C107.471 15.1062 107.677 15.7527 108.089 16.1985C108.502 16.6332 109.093 16.8506 109.862 16.8506C110.709 16.8506 111.378 16.5942 111.868 16.0815C112.358 15.5688 112.604 14.8443 112.604 13.908V9.79519H114.209Z" fill="#00BE7B"/>
</svg>
